<?xml version="1.0" standalone="no"?>
<!DOCTYPE svg PUBLIC "-//W3C//DTD SVG 20010904//EN"
 "http://www.w3.org/TR/2001/REC-SVG-20010904/DTD/svg10.dtd">
<svg version="1.0" xmlns="http://www.w3.org/2000/svg"
 width="172.000000pt" height="266.000000pt" viewBox="0 0 172.000000 266.000000"
 preserveAspectRatio="xMidYMid meet">

<g transform="translate(0.000000,266.000000) scale(0.100000,-0.100000)"
fill="#FF0000" stroke="none">
<path d="M98 2228 c-2 -112 -3 -204 -3 -205 0 -1 20 3 45 9 25 5 225 12 444
15 335 4 398 3 394 -8 -3 -8 -218 -398 -477 -868 -259 -469 -471 -855 -471
-856 0 -2 323 -6 718 -9 394 -2 745 -8 780 -13 l62 -9 0 219 c0 205 -1 219
-17 212 -55 -22 -116 -25 -486 -23 l-406 3 459 860 c253 473 460 863 460 868
0 4 -337 7 -749 7 l-749 0 -4 -202z"/>
</g>
</svg>
